<svg id="visual" viewBox="0 0 900 600" width="900" height="600" xmlns="http://www.w3.org/2000/svg" xmlns:xlink="http://www.w3.org/1999/xlink" version="1.1"><rect x="0" y="0" width="900" height="600" fill="#A8A89E"></rect><path d="M0 185L21.5 177.5C43 170 86 155 128.8 147.2C171.7 139.3 214.3 138.7 257.2 137C300 135.3 343 132.7 385.8 141.7C428.7 150.7 471.3 171.3 514.2 180.8C557 190.3 600 188.7 642.8 185.2C685.7 181.7 728.3 176.3 771.2 174.7C814 173 857 175 878.5 176L900 177L900 0L878.5 0C857 0 814 0 771.2 0C728.3 0 685.7 0 642.8 0C600 0 557 0 514.2 0C471.3 0 428.7 0 385.8 0C343 0 300 0 257.2 0C214.3 0 171.7 0 128.8 0C86 0 43 0 21.5 0L0 0Z" fill="#CCCCCC" stroke-linecap="round" stroke-linejoin="miter"></path></svg>