<svg id="visual" viewBox="0 0 900 600" width="900" height="600" xmlns="http://www.w3.org/2000/svg" xmlns:xlink="http://www.w3.org/1999/xlink" version="1.1"><rect x="0" y="0" width="900" height="600" fill="#A8A89E"></rect><path d="M0 413L21.5 420.5C43 428 86 443 128.8 450.8C171.7 458.7 214.3 459.3 257.2 461C300 462.7 343 465.3 385.8 456.3C428.7 447.3 471.3 426.7 514.2 417.2C557 407.7 600 409.3 642.8 412.8C685.7 416.3 728.3 421.7 771.2 423.3C814 425 857 423 878.5 422L900 421L900 601L878.5 601C857 601 814 601 771.2 601C728.3 601 685.7 601 642.8 601C600 601 557 601 514.2 601C471.3 601 428.7 601 385.8 601C343 601 300 601 257.2 601C214.3 601 171.7 601 128.8 601C86 601 43 601 21.5 601L0 601Z" fill="#CCCCCC" stroke-linecap="round" stroke-linejoin="miter"></path></svg>