<svg id="visual" viewBox="0 0 1200 140" width="1200" height="140" xmlns="http://www.w3.org/2000/svg" xmlns:xlink="http://www.w3.org/1999/xlink" version="1.1">
  <rect x="0" y="0" width="1200" height="140" fill="#A8A89E"></rect>
  <path d="M0 43L28.7 41.2C57.3 39.3 114.7 35.7 171.7 33.4C228.9 31.1 286.1 30.2 343.5 29.3C400.9 28.4 458.3 27.5 515.7 29.7C573.1 31.9 630.3 37.1 687.7 39.6C745.1 42.1 802.3 41.9 859.7 43.1C917.1 44.3 974.3 46.9 1031.7 47.2C1089.1 47.5 1146.3 45.5 1175 44.5L1200 44L1200 0L1175 0C1146.3 0 1089.1 0 1031.7 0C974.3 0 917.1 0 859.7 0C802.3 0 745.1 0 687.7 0C630.3 0 573.1 0 515.7 0C458.3 0 400.9 0 343.5 0C286.1 0 228.9 0 171.7 0C114.7 0 57.3 0 28.7 0L0 0Z" fill="#CCCCCC" stroke-linecap="round" stroke-linejoin="miter"></path>
</svg>
